<svg version="1.0" xmlns="http://www.w3.org/2000/svg"
 width="454.000000pt" height="500.000000pt" viewBox="0 0 454.000000 554.000000"
 preserveAspectRatio="xMidYMid meet">
<g transform="translate(0.000000,500.000000) scale(0.100000,-0.100000)"
fill="#000000" stroke="none">
<path d="M2739 4910 l-1187 -5 -556 -600 -556 -600 0 -1827 0 -1828 1000 0
1000 0 0 170 0 170 -830 0 -830 0 0 1474 0 1474 564 3 c310 2 568 8 573 12 4
5 10 278 11 608 l4 599 895 0 895 0 -7 -1334 -8 -1333 166 -8 c91 -4 170 -4
175 -1 6 3 12 537 16 1353 3 742 9 1423 12 1516 l7 167 -79 -2 c-44 -2 -613
-5 -1265 -8z m-1122 -1257 c-2 -2 -171 -2 -374 -1 l-371 3 372 401 371 402 3
-401 c1 -220 1 -402 -1 -404z"/>
<path d="M3250 1210 l0 -240 -240 0 -240 0 0 -170 0 -170 240 0 240 0 0 -240
0 -240 175 0 175 0 0 240 0 240 235 0 235 0 0 170 0 170 -235 0 -235 0 0 240
0 240 -175 0 -175 0 0 -240z"/>
</g>
</svg>