<svg id="Home_Page" data-name="Home Page" xmlns="http://www.w3.org/2000/svg" viewBox="0 0 18.72 18.72"><title>ancestry</title><path d="M10,9.94s-1.64,2.18-5.47,1.58A7.17,7.17,0,0,1,.07,9.3,8,8,0,0,1,5.35,7.15a9,9,0,0,1,4.73,1.65s1.69.06,1.69.06a6.08,6.08,0,0,1-3.89-3A13.41,13.41,0,0,1,7,2.13,9.93,9.93,0,0,1,12.5,3.42c2.19,1.4,3.43,5.23,3.45,5.35l1.34,0L17,2.06l1.67,0c-.3,1.75.07,14.25,0,14.27s-1.57.11-1.72-.19c0,0,.34-5.91.37-6L16,10a7.25,7.25,0,0,1-2.76,5.26c-2.62,1.85-6.42,1.31-6.42,1.31a6.42,6.42,0,0,1,1.33-3.5,8.34,8.34,0,0,1,4-3.12ZM3.17,9a4.27,4.27,0,0,0,2.77,1.55,2.88,2.88,0,0,0,2.68-.8A4.8,4.8,0,0,0,5.29,7.93,3.22,3.22,0,0,0,3.17,9Zm11.08,1.11a5,5,0,0,0-3.52,1.74,7.35,7.35,0,0,0-1.56,3.23c.16,0,2.87.33,4-1.37A6.54,6.54,0,0,0,14.26,10.12ZM12.55,4.79A3.55,3.55,0,0,0,9.43,3.53,7.38,7.38,0,0,0,11.2,7.76c1,1,3.18.69,3.18.69A8.52,8.52,0,0,0,12.55,4.79Z" style="fill:#231f20"/></svg>