<svg id="Home_Page" data-name="Home Page" xmlns="http://www.w3.org/2000/svg" viewBox="0 0 18.72 18.72"><title>cart</title><path d="M.07,2.35A.66.66,0,0,0,.77,3H3.22S4.3,5.7,4.42,6.22h0l2.5,7.91s0,0,0,.07L7,15a1.14,1.14,0,0,0-.5.93,1.24,1.24,0,0,0,2.47,0A1.13,1.13,0,0,0,8.49,15v-.29l6.47,0V15a1.13,1.13,0,0,0-.43.88,1.24,1.24,0,0,0,2.47,0,1.14,1.14,0,0,0-.5-.93c0-.36,0-.9,0-.93a.66.66,0,0,0-.67-.66l-7.72,0-.3-.84h7.73A1.5,1.5,0,0,0,16.66,12a2.59,2.59,0,0,0,.46-1c.35-1.24,1.14-3.59,1.5-4.92a1.36,1.36,0,0,0-.47-1.2A1.62,1.62,0,0,0,17,4.42H6.07a1.6,1.6,0,0,0-.84.24L4.31,2.07a.66.66,0,0,0-.66-.44l-2.95,0A.66.66,0,0,0,.07,2.35Z" style="fill:#231f20"/></svg>