<svg id="Home_Page" xmlns="http://www.w3.org/2000/svg" viewBox="0 0 48 52">
	<path style="fill:#010002;" d="M7.239,48.467h28.659c1.378,0,2.5-1.121,2.5-2.5v-3.309c0.157,0.056,0.323,0.092,0.499,0.092h2.33
		c1.378,0,2.5-1.121,2.5-2.5V2.5c0-1.379-1.122-2.5-2.5-2.5H12.568c-0.939,0-2.073,0.45-2.756,1.095
		C9.785,1.12,9.759,1.147,9.734,1.174l-4.602,5.03C4.77,6.6,4.686,7.133,4.821,7.615C4.773,7.808,4.739,8.008,4.739,8.217v37.75
		C4.739,47.346,5.86,48.467,7.239,48.467z M7.739,8.717h2.909v36.75H7.739V8.717z M35.398,45.467h-23.75V8.717h23.75V45.467z
		 M11.895,3.257C12.041,3.143,12.409,3.001,12.569,3h28.159v36.75h-1.83c-0.176,0-0.342,0.036-0.499,0.092V8.217
		c0-1.379-1.122-2.5-2.5-2.5H9.644L11.895,3.257z"/>
	<path style="fill:#010002;" d="M14.148,21.342h17.875c0.276,0,0.5-0.224,0.5-0.5v-6.75c0-0.276-0.224-0.5-0.5-0.5H14.148
		c-0.276,0-0.5,0.224-0.5,0.5v6.75C13.648,21.118,13.872,21.342,14.148,21.342z M14.648,14.592h16.875v5.75H14.648V14.592z"/>
</svg>
