<svg xmlns="http://www.w3.org/2000/svg" viewBox="0 0 18.72 18.72"><title>fit</title><g id="Light_Box" data-name="Light Box"><path d="M14.47,3.88H4.25a.37.37,0,0,0-.37.37V14.47a.37.37,0,0,0,.37.37H14.47a.37.37,0,0,0,.37-.37V4.25A.37.37,0,0,0,14.47,3.88Zm-.37,10.21H4.63V4.63h9.47Z" style="fill:#231f20"/><polygon points="9.36 0.07 6.28 3.48 12.44 3.48 9.36 0.07" style="fill:#231f20"/><polygon points="9.36 18.65 12.44 15.24 6.28 15.24 9.36 18.65" style="fill:#231f20"/><polygon points="3.48 12.44 3.48 6.28 0.07 9.36 3.48 12.44" style="fill:#231f20"/><polygon points="15.24 6.28 15.24 12.44 18.65 9.36 15.24 6.28" style="fill:#231f20"/></g></svg>