<svg xmlns="http://www.w3.org/2000/svg" viewBox="0 0 18.72 18.72"><title>flip</title><g id="Layer_3" data-name="Layer 3"><path d="M8.23,9.79a1.13,1.13,0,0,0-.06-1.53L6.26,6.34h7.85a1.14,1.14,0,0,0,1.15-1.1,1.13,1.13,0,0,0-1.12-1.15H6.26l1.9-1.9A1.13,1.13,0,1,0,6.59.57L2,5.12a.12.12,0,0,0,0,.17L6.57,9.83A1.14,1.14,0,0,0,8.23,9.79Z" style="fill:#231f20"/><path d="M10.49,18.1a1.13,1.13,0,0,1,.06-1.53l1.92-1.92H4.61a1.14,1.14,0,0,1-1.15-1.1,1.13,1.13,0,0,1,1.12-1.15h7.88l-1.9-1.9a1.13,1.13,0,1,1,1.57-1.61l4.55,4.55a.12.12,0,0,1,0,.17l-4.53,4.53A1.14,1.14,0,0,1,10.49,18.1Z" style="fill:#231f20"/></g></svg>