<svg id="Home_Page" data-name="Home Page" xmlns="http://www.w3.org/2000/svg" viewBox="0 0 18.72 18.72"><title>pagesettings</title><path d="M6.63,1.23,3.49,4.37V17.49H15.23V1.23Zm7.29,15H4.8V5.32H7.12V2.59l0,0h6.75Z" style="fill:#231f20"/><path d="M13.21,11c0,.14,0,.28,0,.41s-.06.06-.09.06l-.42,0c-.06,0-.09,0-.1.08s0,.21-.08.33c.14.09.27.18.41.26s.08.08,0,.14l-.15.34-.49-.12a.09.09,0,0,0-.13.05c-.05.1-.12.18-.18.28l.36.46-.31.35-.42-.27c-.05,0-.09,0-.14,0a.76.76,0,0,1-.12.1c-.14.11-.14.11-.08.28l.11.3c0,.05,0,.09,0,.12l-.27.15c-.06,0-.09,0-.13,0l-.3-.39-.34.13a.12.12,0,0,0-.06.08c0,.14,0,.29,0,.43s0,.09-.07.1-.25.08-.35,0-.1-.19-.14-.29,0-.19-.09-.23-.16,0-.24,0-.18,0-.23.17l-.13.4-.45-.06c0-.18,0-.35,0-.51s0-.11-.09-.12l-.1,0c-.23-.09-.23-.09-.38.11l-.22.29-.34-.18a.11.11,0,0,1,0-.1c0-.15.1-.29.15-.44a.09.09,0,0,0,0-.12l-.28-.22-.44.3s-.08,0-.12,0l-.26-.27.33-.42a.1.1,0,0,0,0-.15c-.06-.09-.12-.18-.19-.28L6,12.64c-.09,0-.13,0-.17-.08s-.09-.2-.13-.31l.46-.3c.06,0,.08-.07,0-.13a.65.65,0,0,1,0-.1c0-.07,0-.17-.07-.21s-.15,0-.22,0l-.4,0c0-.14,0-.26,0-.39A.1.1,0,0,1,5.57,11l.48-.13c.05,0,.08,0,.08-.09a1.85,1.85,0,0,1,0-.27c0-.06,0-.09-.07-.11l-.52-.22c0-.13.06-.27.1-.4s.06,0,.09,0l.48,0a.09.09,0,0,0,.12-.07c0-.1.08-.19.13-.3L6.07,9C6,9,6,9,6.05,8.91l.2-.31.51.23c.06,0,.11,0,.15,0l0,0c.06-.07.15-.13.16-.2S7,8.4,7,8.32s-.11-.17-.15-.27a.11.11,0,0,1,0-.1,2.51,2.51,0,0,1,.21-.17l.09-.06.47.44L8,8l-.1-.63.31-.12a.12.12,0,0,1,.18.08c.06.13.14.25.2.38s.07.08.13.06h0c.09,0,.21,0,.27-.07s0-.18.06-.27L9.13,7h.41s.05.05.06.08.06.3.08.46a.11.11,0,0,0,.11.11.76.76,0,0,1,.2,0c.09,0,.12,0,.16-.08s.13-.25.19-.37.07-.09.15-.06l.27.09c.06,0,.07,0,.06.11s-.05.3-.08.46A.1.1,0,0,0,10.8,8l.28.14.46-.43L11.9,8l-.26.47s0,.08,0,.13.14.2.23.22.2-.07.31-.12l.24-.11,0,.06L12.7,9l-.45.41c0,.11.1.22.15.33a.1.1,0,0,0,.08,0l.46,0c.06,0,.08,0,.1.06s.06.25.1.38l-.55.24c0,.12,0,.24,0,.36s0,.06.07.07ZM9.34,12.22A1.33,1.33,0,1,0,8,10.89,1.33,1.33,0,0,0,9.34,12.22Z" style="fill:#231f20"/></svg>