<svg id="Home_Page" data-name="Home Page" xmlns="http://www.w3.org/2000/svg" viewBox="0 0 18.72 18.72"><title>sync</title><path d="M9,16.28a6.31,6.31,0,0,1-3.95-1.37,6.11,6.11,0,0,1-2-2.66,6.34,6.34,0,0,1,.53-5.72L4.8,7.69a4.74,4.74,0,0,0-.29,3.76,4.65,4.65,0,0,0,2,2.5A4.7,4.7,0,0,0,9,14.69V12.32l3.16,3.16L9,18.65Z" style="fill:#231f20"/><path d="M9.69,2.44a6.3,6.3,0,0,1,3.64,1.15,6.15,6.15,0,0,1,2.33,3,6.32,6.32,0,0,1-.58,5.59L13.92,11a4.74,4.74,0,0,0,.36-3.55,4.65,4.65,0,0,0-1.82-2.56A4.71,4.71,0,0,0,9.7,4V6.4L6.53,3.24,9.69.07Z" style="fill:#231f20"/><path d="M9.27,9.42A2.21,2.21,0,0,1,7.11,10a2.83,2.83,0,0,1-1.75-.87,3.15,3.15,0,0,1,2.08-.85A3.55,3.55,0,0,1,9.31,9L10,9A2.4,2.4,0,0,1,8.44,7.82a5.29,5.29,0,0,1-.33-1.48,3.92,3.92,0,0,1,2.16.51A4.52,4.52,0,0,1,11.62,9h.53L12,6.31h.66c-.12.69,0,5.62,0,5.63s-.62,0-.68-.07.13-2.33.14-2.38l-.52,0a2.86,2.86,0,0,1-1.09,2.08A4,4,0,0,1,8,12a2.53,2.53,0,0,1,.52-1.38,3.29,3.29,0,0,1,1.56-1.23ZM6.58,9.06a1.69,1.69,0,0,0,1.09.61,1.14,1.14,0,0,0,1.06-.31,1.89,1.89,0,0,0-1.31-.73A1.27,1.27,0,0,0,6.58,9.06ZM11,9.49a2,2,0,0,0-1.39.69A2.9,2.9,0,0,0,9,11.45a1.77,1.77,0,0,0,1.58-.54A2.58,2.58,0,0,0,11,9.49Zm-.68-2.1a1.4,1.4,0,0,0-1.23-.5,2.91,2.91,0,0,0,.7,1.67A1.82,1.82,0,0,0,11,8.83,3.36,3.36,0,0,0,10.28,7.39Z" style="fill:#231f20"/></svg>