<svg id="Home_Page" data-name="Home Page" xmlns="http://www.w3.org/2000/svg" viewBox="0 0 18.72 18.72"><title>zin</title><path d="M11,13.94a6.59,6.59,0,1,1,6.31-4.68h0A6.6,6.6,0,0,1,11,13.94ZM11,1.55a5.81,5.81,0,1,0,1.68.25A5.82,5.82,0,0,0,11,1.55Z" style="fill:#231f20"/><polygon points="14.99 6.6 11.73 6.6 11.73 3.34 10.22 3.34 10.22 6.6 6.96 6.6 6.96 8.11 10.22 8.11 10.22 11.37 11.73 11.37 11.73 8.11 14.99 8.11 14.99 6.6" style="fill:#231f20"/><rect x="0.88" y="13.89" width="6.71" height="1.98" transform="translate(-9.28 7.35) rotate(-44.98)" style="fill:#231f20"/></svg>